<svg width="379" height="79" viewBox="0 0 379 79" fill="none" xmlns="http://www.w3.org/2000/svg">
<path d="M377.287 27.4475H366.123L357.076 37.8995V15.1934H347.514V58.3637H357.076V48.883L359.988 45.7431L367.269 58.3637H378.5L366.578 39.0418L377.287 27.4475ZM329.591 51.9679C328.663 52.0198 327.737 51.8206 326.912 51.3909C326.086 50.9612 325.389 50.3167 324.895 49.5244C323.869 47.9178 323.353 45.7186 323.353 42.9453C323.353 40.1719 323.893 37.9239 324.895 36.2868C325.388 35.4931 326.084 34.8475 326.91 34.4176C327.736 33.9877 328.662 33.7894 329.591 33.8433C330.194 33.8105 330.797 33.9019 331.363 34.112C331.93 34.322 332.448 34.6464 332.885 35.065C333.754 35.9962 334.341 37.1574 334.578 38.4126H343.916C343.699 36.7495 343.196 35.1371 342.429 33.6478C341.694 32.2159 340.685 30.9436 339.462 29.9032C338.168 28.8246 336.687 27.9962 335.094 27.4597C333.284 26.8581 331.387 26.5629 329.481 26.5861C327.236 26.5486 325.006 26.964 322.923 27.8079C321.027 28.5874 319.316 29.7591 317.899 31.2471C316.498 32.7459 315.409 34.5112 314.695 36.4395C313.928 38.5287 313.549 40.7424 313.579 42.9697C313.556 45.1864 313.949 47.3875 314.738 49.4572C315.469 51.3925 316.579 53.1602 318.002 54.6557C319.44 56.1435 321.169 57.3146 323.08 58.0949C325.203 58.9431 327.471 59.3584 329.754 59.3167C331.746 59.3419 333.726 59.0131 335.603 58.3454C337.269 57.7606 338.804 56.8491 340.118 55.6636C341.356 54.5309 342.348 53.1518 343.03 51.6136C343.707 50.0517 344.084 48.3748 344.14 46.6716H334.875C334.439 50.2147 332.677 51.9862 329.591 51.9862V51.9679ZM300.673 43.6172C299.957 43.9702 299.212 44.2624 298.447 44.4908C297.597 44.7535 296.675 45.0039 295.686 45.2422C294.26 45.5148 292.893 46.0357 291.645 46.7816C291.233 47.0767 290.902 47.4729 290.685 47.9325C290.467 48.3922 290.369 48.9001 290.401 49.4083C290.401 50.6626 290.806 51.5484 291.615 52.0656C292.504 52.619 293.537 52.8933 294.582 52.8536C296.192 52.9282 297.771 52.3895 299.005 51.3448C299.567 50.8375 300.01 50.2112 300.302 49.5109C300.595 48.8106 300.73 48.0537 300.698 47.2947L300.673 43.6172ZM310.988 57.9239V58.3454H301.626C301.342 57.9351 301.136 57.4753 301.019 56.9892C300.84 56.3039 300.702 55.6082 300.607 54.9062H300.485C299.577 56.1819 298.387 57.2275 297.009 57.9605C295.28 58.7972 293.373 59.1916 291.457 59.109C290.039 59.1197 288.627 58.9137 287.27 58.4981C286.055 58.1298 284.932 57.505 283.976 56.6655C283.055 55.85 282.324 54.8406 281.834 53.7089C281.31 52.4484 281.052 51.0921 281.076 49.726C281.034 48.2429 281.362 46.773 282.028 45.4499C282.63 44.3138 283.496 43.3413 284.552 42.6154C285.687 41.8388 286.942 41.2567 288.266 40.8928C289.735 40.4751 291.234 40.1709 292.749 39.9826C294.785 39.7883 296.794 39.3788 298.744 38.7608C299.897 38.3149 300.467 37.5696 300.467 36.525C300.491 36.0707 300.415 35.6167 300.247 35.1947C300.078 34.7727 299.82 34.3928 299.49 34.0815C298.815 33.5155 297.745 33.2324 296.281 33.2324C295.027 33.1424 293.784 33.5064 292.774 34.2587C291.943 35.028 291.435 36.0878 291.354 37.2214H282.441C282.476 35.8019 282.8 34.4047 283.393 33.1164C283.999 31.8118 284.881 30.6566 285.978 29.7321C287.233 28.6979 288.676 27.918 290.225 27.4352C292.167 26.8381 294.19 26.5536 296.22 26.5922C298.177 26.5463 300.133 26.7516 302.039 27.2031C303.496 27.5643 304.869 28.2098 306.079 29.1029C307.36 30.039 308.366 31.3051 308.992 32.7682C309.649 34.3965 309.971 36.1422 309.938 37.8995V53.5378C309.92 54.5174 309.989 55.4967 310.145 56.4639C310.181 56.757 310.277 57.0394 310.426 57.2937C310.575 57.548 310.775 57.7688 311.012 57.9422L310.988 57.9239ZM269.147 43.2813C269.147 40.6219 268.654 38.49 267.667 36.8854C267.188 36.092 266.503 35.4451 265.686 35.0146C264.87 34.584 263.951 34.386 263.031 34.4419C262.059 34.4179 261.098 34.6473 260.24 35.1078C259.444 35.5537 258.762 36.1813 258.25 36.9404C257.679 37.7948 257.268 38.7472 257.036 39.7504C256.775 40.8984 256.647 42.073 256.654 43.2507C256.654 45.7838 257.219 47.82 258.347 49.3594C258.901 50.1218 259.635 50.7332 260.482 51.1384C261.33 51.5437 262.264 51.7301 263.201 51.6808C264.058 51.7111 264.908 51.5219 265.672 51.1308C266.436 50.7397 267.089 50.1597 267.57 49.445C268.621 47.9626 269.145 45.8897 269.141 43.2263L269.147 43.2813ZM278.048 36.3723C278.658 38.4814 278.959 40.6691 278.94 42.8659C278.976 45.1875 278.659 47.501 277.999 49.726C277.439 51.6165 276.52 53.3798 275.293 54.9184C274.162 56.3194 272.731 57.445 271.107 58.211C269.413 58.9912 267.569 59.3834 265.707 59.3594C263.949 59.4106 262.205 59.0268 260.628 58.2415C259.236 57.505 258.026 56.4609 257.091 55.1872H256.976V68.5897H247.268V27.4475H256.545V31.1921H256.727C257.735 29.8019 259.031 28.6492 260.525 27.814C262.188 26.9287 264.051 26.491 265.931 26.5434C267.812 26.5078 269.675 26.9268 271.362 27.7651C272.967 28.5891 274.368 29.7642 275.463 31.2043C276.635 32.7594 277.509 34.5201 278.042 36.3967L278.048 36.3723ZM233.938 42.9697C233.938 40.1556 233.394 37.8812 232.306 36.1463C231.805 35.3125 231.089 34.6308 230.235 34.1737C229.38 33.7166 228.418 33.5011 227.452 33.5501C226.491 33.5016 225.536 33.7177 224.688 34.1752C223.84 34.6326 223.132 35.3141 222.64 36.1463C221.581 37.8689 221.051 40.1434 221.051 42.9697C221.051 45.796 221.587 48.0603 222.658 49.7626C223.155 50.5882 223.865 51.2628 224.712 51.7146C225.559 52.1664 226.512 52.3785 227.47 52.3283C228.433 52.3791 229.392 52.1676 230.247 51.7161C231.101 51.2646 231.818 50.5898 232.324 49.7626C233.416 48.0522 233.96 45.7879 233.956 42.9697H233.938ZM242.59 36.4762C244.135 40.6634 244.135 45.27 242.59 49.4572C241.854 51.3916 240.742 53.1589 239.32 54.6557C237.876 56.1508 236.135 57.3227 234.211 58.0949C229.912 59.7454 225.161 59.7454 220.863 58.0949C218.937 57.3257 217.192 56.16 215.74 54.6726C214.288 53.1852 213.16 51.4088 212.429 49.4572C210.884 45.27 210.884 40.6634 212.429 36.4762C213.161 34.526 214.289 32.7512 215.742 31.2649C217.194 29.7787 218.938 28.6137 220.863 27.8445C225.161 26.1941 229.912 26.1941 234.211 27.8445C236.135 28.6167 237.876 29.7886 239.32 31.2837C240.741 32.7793 241.852 34.5443 242.59 36.4762ZM213.515 14.9062H202.351L198.965 23.825H206.325L213.515 14.9062ZM198.013 58.3637H207.721V27.4475H198.013V58.3637ZM181.691 41.3998C181.455 42.2061 181.236 42.9819 181.036 43.7211C180.836 44.4602 180.66 45.12 180.502 45.6881C180.344 46.3723 180.187 47.0137 180.029 47.6185H179.907C179.75 47.0076 179.592 46.3967 179.434 45.6881C179.276 45.12 179.088 44.4664 178.87 43.7211C178.652 42.9758 178.445 42.2061 178.263 41.3998L174.089 27.4475H164.114L174.635 58.3637H185.089L195.598 27.4475H185.908L181.691 41.3998ZM159.727 29.836C158.802 28.7999 157.666 27.9769 156.396 27.423C154.99 26.8163 153.472 26.5164 151.943 26.5434C150.05 26.4829 148.175 26.9321 146.512 27.8445C144.927 28.8067 143.577 30.1157 142.563 31.6747H142.387V27.4475H133.061V58.3637H142.769V41.2593C142.693 39.5663 143.208 37.9001 144.225 36.5495C144.685 35.958 145.277 35.4839 145.952 35.1655C146.628 34.8471 147.369 34.6934 148.114 34.7168C148.784 34.6791 149.453 34.8017 150.067 35.0746C150.681 35.3474 151.222 35.7629 151.645 36.2868C152.494 37.4338 152.923 38.8409 152.859 40.2697V58.3637H162.567V38.2599C162.586 36.651 162.345 35.0498 161.851 33.5195C161.415 32.1677 160.709 30.9202 159.776 29.8543L159.727 29.836ZM106.583 40.0681H125.173V31.7358H106.583V24.0082H128.262V15.1934H96.0679V58.3637H128.614V49.3106H106.583V40.0681Z" fill="#3D4550"/>
<path d="M49.8342 0.855957L74.0007 15.2237L73.9643 43.4582H64.1472V26.5615L42.1589 39.1821V64.6799L56.7207 56.2926L61.5746 64.8815L37.2079 78.9315L12.8593 64.8815L17.7133 56.3293L32.2751 64.7165V39.1821L10.3353 26.5492V43.446H0.518202L0.5 15.2237L24.6665 0.855957L29.66 9.37151L15.2074 17.9604L37.2504 30.6176L59.2933 17.9604L44.8407 9.37151L49.8342 0.855957Z" fill="#3D4550"/>
</svg>
